<svg width="1070" height="226" viewBox="0 0 1070 226" fill="none" xmlns="http://www.w3.org/2000/svg">
<path d="M123.885 134C122.619 134 121.549 133.611 120.673 132.832C119.894 131.956 119.505 130.885 119.505 129.62V87.426C119.505 79.9313 117.509 73.7993 113.519 69.03C109.625 64.2607 104.515 61.876 98.1886 61.876C91.4726 61.876 85.9733 64.1147 81.6906 68.592C77.5053 72.972 75.51 78.9093 75.7046 86.404H66.9446C67.1393 79.688 68.5993 73.848 71.3246 68.884C74.05 63.92 77.7486 60.0753 82.4206 57.35C87.0926 54.5273 92.3486 53.116 98.1886 53.116C104.126 53.116 109.333 54.576 113.811 57.496C118.288 60.416 121.792 64.4553 124.323 69.614C126.951 74.7727 128.265 80.71 128.265 87.426V129.62C128.265 130.885 127.875 131.956 127.097 132.832C126.318 133.611 125.247 134 123.885 134ZM18.3266 134C17.0613 134 15.9906 133.611 15.1146 132.832C14.336 131.956 13.9466 130.885 13.9466 129.62V58.518C13.9466 57.1553 14.336 56.0847 15.1146 55.306C15.9906 54.5273 17.0613 54.138 18.3266 54.138C19.6893 54.138 20.76 54.5273 21.5386 55.306C22.3173 56.0847 22.7066 57.1553 22.7066 58.518V129.62C22.7066 130.885 22.3173 131.956 21.5386 132.832C20.76 133.611 19.6893 134 18.3266 134ZM71.3246 134C70.0593 134 68.9886 133.611 68.1126 132.832C67.334 131.956 66.9446 130.885 66.9446 129.62V87.426C66.9446 79.9313 64.9493 73.7993 60.9586 69.03C57.0653 64.2607 51.9553 61.876 45.6286 61.876C38.9126 61.876 33.4133 64.0173 29.1306 68.3C24.848 72.5827 22.7066 78.1307 22.7066 84.944H15.4066C15.6986 78.7147 17.1586 73.2153 19.7866 68.446C22.512 63.6767 26.1133 59.9293 30.5906 57.204C35.068 54.4787 40.0806 53.116 45.6286 53.116C51.566 53.116 56.7733 54.576 61.2506 57.496C65.728 60.416 69.232 64.4553 71.7626 69.614C74.3906 74.7727 75.7046 80.71 75.7046 87.426V129.62C75.7046 130.885 75.3153 131.956 74.5366 132.832C73.758 133.611 72.6873 134 71.3246 134ZM188.435 134.73C180.746 134.73 173.884 133.027 167.849 129.62C161.912 126.116 157.24 121.298 153.833 115.166C150.426 109.034 148.723 102.026 148.723 94.142C148.723 86.1607 150.329 79.1527 153.541 73.118C156.753 66.986 161.182 62.168 166.827 58.664C172.472 55.16 178.945 53.408 186.245 53.408C193.448 53.408 199.823 55.1113 205.371 58.518C210.919 61.8273 215.25 66.4507 218.365 72.388C221.48 78.228 223.037 84.9927 223.037 92.682C223.037 93.9473 222.648 94.9693 221.869 95.748C221.09 96.4293 220.068 96.77 218.803 96.77H154.563V89.178H221.139L214.715 93.996C214.91 87.6693 213.839 82.0727 211.503 77.206C209.167 72.3393 205.809 68.5433 201.429 65.818C197.146 62.9953 192.085 61.584 186.245 61.584C180.697 61.584 175.733 62.9953 171.353 65.818C167.07 68.5433 163.664 72.3393 161.133 77.206C158.7 82.0727 157.483 87.718 157.483 94.142C157.483 100.469 158.797 106.065 161.425 110.932C164.053 115.799 167.703 119.643 172.375 122.466C177.047 125.191 182.4 126.554 188.435 126.554C192.231 126.554 196.027 125.921 199.823 124.656C203.716 123.293 206.782 121.541 209.021 119.4C209.8 118.621 210.724 118.232 211.795 118.232C212.963 118.135 213.936 118.427 214.715 119.108C215.786 119.984 216.321 120.957 216.321 122.028C216.418 123.099 215.98 124.072 215.007 124.948C211.892 127.771 207.804 130.107 202.743 131.956C197.779 133.805 193.01 134.73 188.435 134.73ZM274.776 134C269.422 133.903 264.653 132.686 260.468 130.35C256.282 127.917 253.022 124.607 250.686 120.422C248.35 116.139 247.182 111.321 247.182 105.968V33.26C247.182 31.8973 247.571 30.8267 248.35 30.048C249.226 29.172 250.296 28.734 251.562 28.734C252.924 28.734 253.995 29.172 254.774 30.048C255.65 30.8267 256.088 31.8973 256.088 33.26V105.968C256.088 111.613 257.84 116.237 261.344 119.838C264.848 123.342 269.374 125.094 274.922 125.094H278.134C279.496 125.094 280.567 125.532 281.346 126.408C282.222 127.187 282.66 128.257 282.66 129.62C282.66 130.885 282.222 131.956 281.346 132.832C280.567 133.611 279.496 134 278.134 134H274.776ZM235.794 64.942C234.626 64.942 233.652 64.6013 232.874 63.92C232.192 63.1413 231.852 62.168 231.852 61C231.852 59.832 232.192 58.9073 232.874 58.226C233.652 57.4473 234.626 57.058 235.794 57.058H275.36C276.528 57.058 277.452 57.4473 278.134 58.226C278.912 58.9073 279.302 59.832 279.302 61C279.302 62.168 278.912 63.1413 278.134 63.92C277.452 64.6013 276.528 64.942 275.36 64.942H235.794ZM337.456 134.876C329.67 134.876 322.662 133.124 316.432 129.62C310.3 126.019 305.434 121.152 301.832 115.02C298.328 108.791 296.576 101.831 296.576 94.142C296.576 86.3553 298.328 79.396 301.832 73.264C305.434 67.0347 310.3 62.168 316.432 58.664C322.662 55.0627 329.67 53.262 337.456 53.262C345.243 53.262 352.202 55.0627 358.334 58.664C364.466 62.168 369.284 67.0347 372.788 73.264C376.39 79.396 378.19 86.3553 378.19 94.142L374.54 99.982C374.54 106.601 372.886 112.538 369.576 117.794C366.364 123.05 361.984 127.235 356.436 130.35C350.888 133.367 344.562 134.876 337.456 134.876ZM337.456 126.7C343.588 126.7 349.039 125.289 353.808 122.466C358.675 119.546 362.471 115.653 365.196 110.786C368.019 105.822 369.43 100.274 369.43 94.142C369.43 87.9127 368.019 82.3647 365.196 77.498C362.471 72.534 358.675 68.6407 353.808 65.818C349.039 62.898 343.588 61.438 337.456 61.438C331.422 61.438 325.971 62.898 321.104 65.818C316.238 68.6407 312.393 72.534 309.57 77.498C306.748 82.3647 305.336 87.9127 305.336 94.142C305.336 100.274 306.748 105.822 309.57 110.786C312.393 115.653 316.238 119.546 321.104 122.466C325.971 125.289 331.422 126.7 337.456 126.7ZM373.81 134C372.545 134 371.474 133.611 370.598 132.832C369.82 131.956 369.43 130.885 369.43 129.62V102.902L372.204 94.142H378.19V129.62C378.19 130.885 377.801 131.956 377.022 132.832C376.244 133.611 375.173 134 373.81 134ZM400.632 86.696C398.588 86.696 396.836 86.0147 395.376 84.652C393.916 83.192 393.186 81.3913 393.186 79.25C393.186 77.206 393.868 75.5027 395.23 74.14C396.69 72.68 398.491 71.95 400.632 71.95C402.774 71.95 404.526 72.68 405.888 74.14C407.251 75.6 407.932 77.3033 407.932 79.25C407.932 81.3913 407.202 83.192 405.742 84.652C404.38 86.0147 402.676 86.696 400.632 86.696ZM463.896 134.876C456.304 134.876 449.49 133.075 443.456 129.474C437.518 125.873 432.798 121.006 429.294 114.874C425.887 108.742 424.184 101.831 424.184 94.142C424.184 86.3553 425.79 79.396 429.002 73.264C432.214 67.132 436.642 62.314 442.288 58.81C447.933 55.2087 454.406 53.408 461.706 53.408C467.935 53.408 473.629 54.6247 478.788 57.058C483.946 59.394 488.424 62.9953 492.22 67.862C492.998 68.8353 493.29 69.8573 493.096 70.928C492.901 71.9987 492.269 72.8747 491.198 73.556C490.322 74.2373 489.349 74.5293 488.278 74.432C487.207 74.2373 486.282 73.6533 485.504 72.68C479.274 65.2827 471.342 61.584 461.706 61.584C455.963 61.584 450.902 62.9953 446.522 65.818C442.239 68.6407 438.881 72.4853 436.448 77.352C434.112 82.2187 432.944 87.8153 432.944 94.142C432.944 100.274 434.258 105.822 436.886 110.786C439.514 115.653 443.115 119.546 447.69 122.466C452.362 125.289 457.764 126.7 463.896 126.7C467.886 126.7 471.634 126.116 475.138 124.948C478.739 123.78 481.854 121.979 484.482 119.546C485.358 118.767 486.331 118.329 487.402 118.232C488.472 118.135 489.397 118.475 490.176 119.254C491.149 120.13 491.636 121.152 491.636 122.32C491.733 123.391 491.344 124.315 490.468 125.094C483.362 131.615 474.505 134.876 463.896 134.876ZM551.609 134.876C543.822 134.876 536.814 133.124 530.585 129.62C524.453 126.019 519.586 121.152 515.985 115.02C512.481 108.791 510.729 101.831 510.729 94.142C510.729 86.3553 512.481 79.396 515.985 73.264C519.586 67.0347 524.453 62.168 530.585 58.664C536.814 55.0627 543.822 53.262 551.609 53.262C559.395 53.262 566.355 55.0627 572.487 58.664C578.619 62.168 583.437 67.0347 586.941 73.264C590.542 79.396 592.343 86.3553 592.343 94.142C592.343 101.831 590.542 108.791 586.941 115.02C583.437 121.152 578.619 126.019 572.487 129.62C566.355 133.124 559.395 134.876 551.609 134.876ZM551.609 126.7C557.741 126.7 563.191 125.289 567.961 122.466C572.827 119.546 576.623 115.653 579.349 110.786C582.171 105.822 583.583 100.225 583.583 93.996C583.583 87.864 582.171 82.3647 579.349 77.498C576.623 72.534 572.827 68.6407 567.961 65.818C563.191 62.898 557.741 61.438 551.609 61.438C545.574 61.438 540.123 62.898 535.257 65.818C530.39 68.6407 526.545 72.534 523.723 77.498C520.9 82.3647 519.489 87.9127 519.489 94.142C519.489 100.274 520.9 105.822 523.723 110.786C526.545 115.653 530.39 119.546 535.257 122.466C540.123 125.289 545.574 126.7 551.609 126.7ZM630.261 134C626.562 134 623.253 132.978 620.333 130.934C617.51 128.89 615.271 126.067 613.617 122.466C612.059 118.865 611.281 114.679 611.281 109.91V24.354C611.281 22.9913 611.67 21.9207 612.449 21.142C613.325 20.3633 614.395 19.974 615.661 19.974C617.023 19.974 618.094 20.3633 618.873 21.142C619.651 21.9207 620.041 22.9913 620.041 24.354V109.91C620.041 114.387 620.965 118.086 622.815 121.006C624.761 123.829 627.243 125.24 630.261 125.24H633.911C634.981 125.24 635.857 125.629 636.539 126.408C637.22 127.187 637.561 128.257 637.561 129.62C637.561 130.885 637.171 131.956 636.393 132.832C635.614 133.611 634.543 134 633.181 134H630.261ZM669.612 134C665.913 134 662.604 132.978 659.684 130.934C656.861 128.89 654.623 126.067 652.968 122.466C651.411 118.865 650.632 114.679 650.632 109.91V24.354C650.632 22.9913 651.021 21.9207 651.8 21.142C652.676 20.3633 653.747 19.974 655.012 19.974C656.375 19.974 657.445 20.3633 658.224 21.142C659.003 21.9207 659.392 22.9913 659.392 24.354V109.91C659.392 114.387 660.317 118.086 662.166 121.006C664.113 123.829 666.595 125.24 669.612 125.24H673.262C674.333 125.24 675.209 125.629 675.89 126.408C676.571 127.187 676.912 128.257 676.912 129.62C676.912 130.885 676.523 131.956 675.744 132.832C674.965 133.611 673.895 134 672.532 134H669.612ZM723.816 134.73C716.126 134.73 709.264 133.027 703.23 129.62C697.292 126.116 692.62 121.298 689.214 115.166C685.807 109.034 684.104 102.026 684.104 94.142C684.104 86.1607 685.71 79.1527 688.922 73.118C692.134 66.986 696.562 62.168 702.208 58.664C707.853 55.16 714.326 53.408 721.626 53.408C728.828 53.408 735.204 55.1113 740.752 58.518C746.3 61.8273 750.631 66.4507 753.746 72.388C756.86 78.228 758.418 84.9927 758.418 92.682C758.418 93.9473 758.028 94.9693 757.25 95.748C756.471 96.4293 755.449 96.77 754.184 96.77H689.944V89.178H756.52L750.096 93.996C750.29 87.6693 749.22 82.0727 746.884 77.206C744.548 72.3393 741.19 68.5433 736.81 65.818C732.527 62.9953 727.466 61.584 721.626 61.584C716.078 61.584 711.114 62.9953 706.734 65.818C702.451 68.5433 699.044 72.3393 696.514 77.206C694.08 82.0727 692.864 87.718 692.864 94.142C692.864 100.469 694.178 106.065 696.806 110.932C699.434 115.799 703.084 119.643 707.756 122.466C712.428 125.191 717.781 126.554 723.816 126.554C727.612 126.554 731.408 125.921 735.204 124.656C739.097 123.293 742.163 121.541 744.402 119.4C745.18 118.621 746.105 118.232 747.176 118.232C748.344 118.135 749.317 118.427 750.096 119.108C751.166 119.984 751.702 120.957 751.702 122.028C751.799 123.099 751.361 124.072 750.388 124.948C747.273 127.771 743.185 130.107 738.124 131.956C733.16 133.805 728.39 134.73 723.816 134.73ZM809.933 134.876C802.341 134.876 795.528 133.075 789.493 129.474C783.556 125.873 778.835 121.006 775.331 114.874C771.924 108.742 770.221 101.831 770.221 94.142C770.221 86.3553 771.827 79.396 775.039 73.264C778.251 67.132 782.68 62.314 788.325 58.81C793.97 55.2087 800.443 53.408 807.743 53.408C813.972 53.408 819.666 54.6247 824.825 57.058C829.984 59.394 834.461 62.9953 838.257 67.862C839.036 68.8353 839.328 69.8573 839.133 70.928C838.938 71.9987 838.306 72.8747 837.235 73.556C836.359 74.2373 835.386 74.5293 834.315 74.432C833.244 74.2373 832.32 73.6533 831.541 72.68C825.312 65.2827 817.379 61.584 807.743 61.584C802 61.584 796.939 62.9953 792.559 65.818C788.276 68.6407 784.918 72.4853 782.485 77.352C780.149 82.2187 778.981 87.8153 778.981 94.142C778.981 100.274 780.295 105.822 782.923 110.786C785.551 115.653 789.152 119.546 793.727 122.466C798.399 125.289 803.801 126.7 809.933 126.7C813.924 126.7 817.671 126.116 821.175 124.948C824.776 123.78 827.891 121.979 830.519 119.546C831.395 118.767 832.368 118.329 833.439 118.232C834.51 118.135 835.434 118.475 836.213 119.254C837.186 120.13 837.673 121.152 837.673 122.32C837.77 123.391 837.381 124.315 836.505 125.094C829.4 131.615 820.542 134.876 809.933 134.876ZM893.85 134C888.497 133.903 883.727 132.686 879.542 130.35C875.357 127.917 872.096 124.607 869.76 120.422C867.424 116.139 866.256 111.321 866.256 105.968V33.26C866.256 31.8973 866.645 30.8267 867.424 30.048C868.3 29.172 869.371 28.734 870.636 28.734C871.999 28.734 873.069 29.172 873.848 30.048C874.724 30.8267 875.162 31.8973 875.162 33.26V105.968C875.162 111.613 876.914 116.237 880.418 119.838C883.922 123.342 888.448 125.094 893.996 125.094H897.208C898.571 125.094 899.641 125.532 900.42 126.408C901.296 127.187 901.734 128.257 901.734 129.62C901.734 130.885 901.296 131.956 900.42 132.832C899.641 133.611 898.571 134 897.208 134H893.85ZM854.868 64.942C853.7 64.942 852.727 64.6013 851.948 63.92C851.267 63.1413 850.926 62.168 850.926 61C850.926 59.832 851.267 58.9073 851.948 58.226C852.727 57.4473 853.7 57.058 854.868 57.058H894.434C895.602 57.058 896.527 57.4473 897.208 58.226C897.987 58.9073 898.376 59.832 898.376 61C898.376 62.168 897.987 63.1413 897.208 63.92C896.527 64.6013 895.602 64.942 894.434 64.942H854.868ZM956.531 134.876C948.744 134.876 941.736 133.124 935.507 129.62C929.375 126.019 924.508 121.152 920.907 115.02C917.403 108.791 915.651 101.831 915.651 94.142C915.651 86.3553 917.403 79.396 920.907 73.264C924.508 67.0347 929.375 62.168 935.507 58.664C941.736 55.0627 948.744 53.262 956.531 53.262C964.317 53.262 971.277 55.0627 977.409 58.664C983.541 62.168 988.359 67.0347 991.863 73.264C995.464 79.396 997.265 86.3553 997.265 94.142C997.265 101.831 995.464 108.791 991.863 115.02C988.359 121.152 983.541 126.019 977.409 129.62C971.277 133.124 964.317 134.876 956.531 134.876ZM956.531 126.7C962.663 126.7 968.113 125.289 972.883 122.466C977.749 119.546 981.545 115.653 984.271 110.786C987.093 105.822 988.505 100.225 988.505 93.996C988.505 87.864 987.093 82.3647 984.271 77.498C981.545 72.534 977.749 68.6407 972.883 65.818C968.113 62.898 962.663 61.438 956.531 61.438C950.496 61.438 945.045 62.898 940.179 65.818C935.312 68.6407 931.467 72.534 928.645 77.498C925.822 82.3647 924.411 87.9127 924.411 94.142C924.411 100.274 925.822 105.822 928.645 110.786C931.467 115.653 935.312 119.546 940.179 122.466C945.045 125.289 950.496 126.7 956.531 126.7ZM1022.04 85.236C1022.63 79.0067 1024.33 73.5073 1027.15 68.738C1029.98 63.8713 1033.63 60.0753 1038.1 57.35C1042.58 54.6247 1047.54 53.262 1052.99 53.262C1056.69 53.262 1059.56 53.7 1061.61 54.576C1063.65 55.452 1064.43 57.0093 1063.94 59.248C1063.65 60.708 1062.97 61.584 1061.9 61.876C1060.83 62.168 1059.52 62.2167 1057.96 62.022C1056.5 61.73 1054.84 61.584 1052.99 61.584C1048.13 61.584 1043.8 62.606 1040 64.65C1036.2 66.694 1033.24 69.5167 1031.09 73.118C1028.95 76.622 1027.88 80.6613 1027.88 85.236H1022.04ZM1023.5 134C1022.24 134 1021.17 133.611 1020.29 132.832C1019.51 131.956 1019.12 130.885 1019.12 129.62V58.518C1019.12 57.1553 1019.51 56.0847 1020.29 55.306C1021.17 54.5273 1022.24 54.138 1023.5 54.138C1024.87 54.138 1025.94 54.5273 1026.71 55.306C1027.49 56.0847 1027.88 57.1553 1027.88 58.518V129.62C1027.88 130.885 1027.49 131.956 1026.71 132.832C1025.94 133.611 1024.87 134 1023.5 134Z" fill="black" fill-opacity="0.5"/>
<path d="M854.995 212.252C851.719 212.252 848.779 211.496 846.175 209.984C843.571 208.43 841.513 206.33 840.001 203.684C838.489 201.038 837.712 198.056 837.67 194.738V166.01C837.67 165.044 837.964 164.267 838.552 163.679C839.182 163.091 839.959 162.797 840.883 162.797C841.849 162.797 842.626 163.091 843.214 163.679C843.802 164.267 844.096 165.044 844.096 166.01V183.02C845.566 181.256 847.33 179.87 849.388 178.862C851.488 177.812 853.777 177.287 856.255 177.287C859.321 177.287 862.072 178.064 864.508 179.618C866.944 181.13 868.855 183.209 870.241 185.855C871.669 188.459 872.383 191.42 872.383 194.738C872.383 198.056 871.606 201.038 870.052 203.684C868.54 206.33 866.482 208.43 863.878 209.984C861.274 211.496 858.313 212.252 854.995 212.252ZM854.995 206.582C857.137 206.582 859.048 206.078 860.728 205.07C862.408 204.02 863.731 202.592 864.697 200.786C865.705 198.98 866.209 196.964 866.209 194.738C866.209 192.47 865.705 190.454 864.697 188.69C863.731 186.926 862.408 185.54 860.728 184.532C859.048 183.482 857.137 182.957 854.995 182.957C852.895 182.957 850.984 183.482 849.262 184.532C847.582 185.54 846.259 186.926 845.293 188.69C844.327 190.454 843.844 192.47 843.844 194.738C843.844 196.964 844.327 198.98 845.293 200.786C846.259 202.592 847.582 204.02 849.262 205.07C850.984 206.078 852.895 206.582 854.995 206.582ZM898.158 212.252C894.672 212.252 891.564 211.517 888.834 210.047C886.146 208.535 884.025 206.477 882.471 203.873C880.959 201.227 880.203 198.203 880.203 194.801C880.203 191.357 880.917 188.333 882.345 185.729C883.815 183.083 885.831 181.025 888.393 179.555C890.955 178.043 893.895 177.287 897.213 177.287C900.489 177.287 903.303 178.022 905.655 179.492C908.007 180.92 909.792 182.915 911.01 185.477C912.27 187.997 912.9 190.916 912.9 194.234C912.9 195.032 912.627 195.704 912.081 196.25C911.535 196.754 910.842 197.006 910.002 197.006H884.613V191.966H909.813L907.23 193.73C907.188 191.63 906.768 189.761 905.97 188.123C905.172 186.443 904.038 185.12 902.568 184.154C901.098 183.188 899.313 182.705 897.213 182.705C894.819 182.705 892.761 183.23 891.039 184.28C889.359 185.33 888.078 186.779 887.196 188.627C886.314 190.433 885.873 192.491 885.873 194.801C885.873 197.111 886.398 199.169 887.448 200.975C888.498 202.781 889.947 204.209 891.795 205.259C893.643 206.309 895.764 206.834 898.158 206.834C899.46 206.834 900.783 206.603 902.127 206.141C903.513 205.637 904.626 205.07 905.466 204.44C906.096 203.978 906.768 203.747 907.482 203.747C908.238 203.705 908.889 203.915 909.435 204.377C910.149 205.007 910.527 205.7 910.569 206.456C910.611 207.212 910.275 207.863 909.561 208.409C908.133 209.543 906.348 210.467 904.206 211.181C902.106 211.895 900.09 212.252 898.158 212.252ZM933.633 212C931.533 212 929.643 211.475 927.963 210.425C926.283 209.333 924.96 207.863 923.994 206.015C923.028 204.167 922.545 202.088 922.545 199.778V169.727C922.545 168.803 922.839 168.047 923.427 167.459C924.015 166.871 924.771 166.577 925.695 166.577C926.619 166.577 927.375 166.871 927.963 167.459C928.551 168.047 928.845 168.803 928.845 169.727V199.778C928.845 201.458 929.307 202.865 930.231 203.999C931.155 205.133 932.289 205.7 933.633 205.7H935.775C936.531 205.7 937.161 205.994 937.665 206.582C938.211 207.17 938.484 207.926 938.484 208.85C938.484 209.774 938.127 210.53 937.413 211.118C936.741 211.706 935.859 212 934.767 212H933.633ZM919.647 184.217C918.765 184.217 918.051 183.965 917.505 183.461C916.959 182.957 916.686 182.327 916.686 181.571C916.686 180.731 916.959 180.059 917.505 179.555C918.051 179.051 918.765 178.799 919.647 178.799H934.2C935.082 178.799 935.796 179.051 936.342 179.555C936.888 180.059 937.161 180.731 937.161 181.571C937.161 182.327 936.888 182.957 936.342 183.461C935.796 183.965 935.082 184.217 934.2 184.217H919.647ZM960.746 212.252C957.68 212.252 954.929 211.496 952.493 209.984C950.057 208.43 948.125 206.351 946.697 203.747C945.311 201.101 944.618 198.119 944.618 194.801C944.618 191.483 945.374 188.501 946.886 185.855C948.44 183.209 950.519 181.13 953.123 179.618C955.769 178.064 958.73 177.287 962.006 177.287C965.282 177.287 968.222 178.064 970.826 179.618C973.43 181.13 975.488 183.209 977 185.855C978.554 188.501 979.331 191.483 979.331 194.801H976.874C976.874 198.119 976.16 201.101 974.732 203.747C973.346 206.351 971.435 208.43 968.999 209.984C966.563 211.496 963.812 212.252 960.746 212.252ZM962.006 206.582C964.148 206.582 966.059 206.078 967.739 205.07C969.419 204.02 970.742 202.613 971.708 200.849C972.674 199.043 973.157 197.027 973.157 194.801C973.157 192.533 972.674 190.517 971.708 188.753C970.742 186.947 969.419 185.54 967.739 184.532C966.059 183.482 964.148 182.957 962.006 182.957C959.906 182.957 957.995 183.482 956.273 184.532C954.593 185.54 953.249 186.947 952.241 188.753C951.275 190.517 950.792 192.533 950.792 194.801C950.792 197.027 951.275 199.043 952.241 200.849C953.249 202.613 954.593 204.02 956.273 205.07C957.995 206.078 959.906 206.582 962.006 206.582ZM976.118 212.063C975.194 212.063 974.417 211.769 973.787 211.181C973.199 210.551 972.905 209.774 972.905 208.85V199.211L974.102 192.533L979.331 194.801V208.85C979.331 209.774 979.016 210.551 978.386 211.181C977.798 211.769 977.042 212.063 976.118 212.063Z" fill="#C41E48"/>
</svg>
