<svg width="1052" height="116" viewBox="0 0 1052 116" fill="none" xmlns="http://www.w3.org/2000/svg">
<path d="M5.32664 115C4.06131 115 2.99064 114.611 2.11464 113.832C1.33597 112.956 0.946641 111.885 0.946641 110.62V39.518C0.946641 38.1553 1.33597 37.0847 2.11464 36.306C2.99064 35.5273 4.06131 35.138 5.32664 35.138C6.68931 35.138 7.75997 35.5273 8.53864 36.306C9.31731 37.0847 9.70664 38.1553 9.70664 39.518V45.212C12.432 41.708 15.7413 38.9827 19.6346 37.036C23.6253 35.0893 27.9566 34.116 32.6286 34.116C38.3713 34.116 43.4813 35.5273 47.9586 38.35C52.436 41.0753 55.94 44.8713 58.4706 49.738C61.0986 44.8713 64.7486 41.0753 69.4206 38.35C74.0926 35.5273 79.3486 34.116 85.1886 34.116C91.126 34.116 96.3333 35.576 100.811 38.496C105.288 41.416 108.792 45.4553 111.323 50.614C113.951 55.7727 115.265 61.71 115.265 68.426V110.62C115.265 111.885 114.875 112.956 114.097 113.832C113.318 114.611 112.247 115 110.885 115C109.619 115 108.549 114.611 107.673 113.832C106.894 112.956 106.505 111.885 106.505 110.62V68.426C106.505 60.9313 104.509 54.7993 100.519 50.03C96.6253 45.2607 91.5153 42.876 85.1886 42.876C78.4726 42.876 72.9733 45.1147 68.6906 49.592C64.5053 53.972 62.51 59.9093 62.7046 67.404C62.7046 67.696 62.7046 68.0367 62.7046 68.426V110.62C62.7046 111.885 62.3153 112.956 61.5366 113.832C60.758 114.611 59.6873 115 58.3246 115C57.0593 115 55.9886 114.611 55.1126 113.832C54.334 112.956 53.9446 111.885 53.9446 110.62V68.426C53.9446 60.9313 51.9493 54.7993 47.9586 50.03C44.0653 45.2607 38.9553 42.876 32.6286 42.876C25.9126 42.876 20.4133 45.0173 16.1306 49.3C11.848 53.5827 9.70664 59.1307 9.70664 65.944V110.62C9.70664 111.885 9.31731 112.956 8.53864 113.832C7.75997 114.611 6.68931 115 5.32664 115ZM175.435 115.73C167.746 115.73 160.884 114.027 154.849 110.62C148.912 107.116 144.24 102.298 140.833 96.166C137.426 90.034 135.723 83.026 135.723 75.142C135.723 67.1607 137.329 60.1527 140.541 54.118C143.753 47.986 148.182 43.168 153.827 39.664C159.472 36.16 165.945 34.408 173.245 34.408C180.448 34.408 186.823 36.1113 192.371 39.518C197.919 42.8273 202.25 47.4507 205.365 53.388C208.48 59.228 210.037 65.9927 210.037 73.682C210.037 74.9473 209.648 75.9693 208.869 76.748C208.09 77.4293 207.068 77.77 205.803 77.77H144.629C144.921 83.61 146.43 88.7687 149.155 93.246C151.88 97.7233 155.482 101.227 159.959 103.758C164.534 106.289 169.692 107.554 175.435 107.554C179.231 107.554 183.027 106.921 186.823 105.656C190.716 104.293 193.782 102.541 196.021 100.4C196.8 99.6213 197.724 99.232 198.795 99.232C199.963 99.1347 200.936 99.4267 201.715 100.108C202.786 100.984 203.321 101.957 203.321 103.028C203.418 104.099 202.98 105.072 202.007 105.948C198.892 108.771 194.804 111.107 189.743 112.956C184.779 114.805 180.01 115.73 175.435 115.73ZM173.245 42.584C168.184 42.584 163.609 43.752 159.521 46.088C155.433 48.424 152.075 51.6847 149.447 55.87C146.916 59.958 145.359 64.7273 144.775 70.178H201.569C200.888 62.002 197.968 55.3833 192.809 50.322C187.65 45.1633 181.129 42.584 173.245 42.584ZM261.776 115C256.422 114.903 251.653 113.686 247.468 111.35C243.282 108.917 240.022 105.607 237.686 101.422C235.35 97.1393 234.182 92.3213 234.182 86.968V45.942H222.794C221.626 45.942 220.652 45.6013 219.874 44.92C219.192 44.1413 218.852 43.168 218.852 42C218.852 40.832 219.192 39.9073 219.874 39.226C220.652 38.4473 221.626 38.058 222.794 38.058H234.182V14.26C234.182 12.8973 234.571 11.8267 235.35 11.048C236.226 10.172 237.296 9.734 238.562 9.734C239.924 9.734 240.995 10.172 241.774 11.048C242.65 11.8267 243.088 12.8973 243.088 14.26V38.058H262.36C263.528 38.058 264.452 38.4473 265.134 39.226C265.912 39.9073 266.302 40.832 266.302 42C266.302 43.168 265.912 44.1413 265.134 44.92C264.452 45.6013 263.528 45.942 262.36 45.942H243.088V86.968C243.088 92.6133 244.84 97.2367 248.344 100.838C251.848 104.342 256.374 106.094 261.922 106.094H265.134C266.496 106.094 267.567 106.532 268.346 107.408C269.222 108.187 269.66 109.257 269.66 110.62C269.66 111.885 269.222 112.956 268.346 113.832C267.567 114.611 266.496 115 265.134 115H261.776ZM324.456 115.876C316.67 115.876 309.662 114.124 303.432 110.62C297.3 107.019 292.434 102.152 288.832 96.02C285.328 89.7907 283.576 82.8313 283.576 75.142C283.576 67.3553 285.328 60.396 288.832 54.264C292.434 48.0347 297.3 43.168 303.432 39.664C309.662 36.0627 316.67 34.262 324.456 34.262C332.243 34.262 339.202 36.0627 345.334 39.664C351.466 43.168 356.284 48.0347 359.788 54.264C363.39 60.396 365.19 67.3553 365.19 75.142V110.62C365.19 111.885 364.801 112.956 364.022 113.832C363.244 114.611 362.173 115 360.81 115C359.545 115 358.474 114.611 357.598 113.832C356.82 112.956 356.43 111.885 356.43 110.62V99.232C353.218 104.293 348.838 108.333 343.29 111.35C337.742 114.367 331.464 115.876 324.456 115.876ZM324.456 107.7C330.588 107.7 336.039 106.289 340.808 103.466C345.675 100.546 349.471 96.6527 352.196 91.786C355.019 86.822 356.43 81.274 356.43 75.142C356.43 68.9127 355.019 63.3647 352.196 58.498C349.471 53.534 345.675 49.6407 340.808 46.818C336.039 43.898 330.588 42.438 324.456 42.438C318.422 42.438 312.971 43.898 308.104 46.818C303.238 49.6407 299.393 53.534 296.57 58.498C293.748 63.3647 292.336 68.9127 292.336 75.142C292.336 81.274 293.748 86.822 296.57 91.786C299.393 96.6527 303.238 100.546 308.104 103.466C312.971 106.289 318.422 107.7 324.456 107.7ZM387.632 67.696C385.588 67.696 383.836 67.0147 382.376 65.652C380.916 64.192 380.186 62.3913 380.186 60.25C380.186 58.206 380.868 56.5027 382.23 55.14C383.69 53.68 385.491 52.95 387.632 52.95C389.774 52.95 391.526 53.68 392.888 55.14C394.251 56.6 394.932 58.3033 394.932 60.25C394.932 62.3913 394.202 64.192 392.742 65.652C391.38 67.0147 389.676 67.696 387.632 67.696ZM450.896 115.876C443.304 115.876 436.49 114.075 430.456 110.474C424.518 106.873 419.798 102.006 416.294 95.874C412.887 89.742 411.184 82.8313 411.184 75.142C411.184 67.3553 412.79 60.396 416.002 54.264C419.214 48.132 423.642 43.314 429.288 39.81C434.933 36.2087 441.406 34.408 448.706 34.408C454.935 34.408 460.629 35.6247 465.788 38.058C470.946 40.394 475.424 43.9953 479.22 48.862C479.998 49.8353 480.29 50.8573 480.096 51.928C479.901 52.9987 479.269 53.8747 478.198 54.556C477.322 55.2373 476.349 55.5293 475.278 55.432C474.207 55.2373 473.282 54.6533 472.504 53.68C466.274 46.2827 458.342 42.584 448.706 42.584C442.963 42.584 437.902 43.9953 433.522 46.818C429.239 49.6407 425.881 53.4853 423.448 58.352C421.112 63.2187 419.944 68.8153 419.944 75.142C419.944 81.274 421.258 86.822 423.886 91.786C426.514 96.6527 430.115 100.546 434.69 103.466C439.362 106.289 444.764 107.7 450.896 107.7C454.886 107.7 458.634 107.116 462.138 105.948C465.739 104.78 468.854 102.979 471.482 100.546C472.358 99.7673 473.331 99.3293 474.402 99.232C475.472 99.1347 476.397 99.4753 477.176 100.254C478.149 101.13 478.636 102.152 478.636 103.32C478.733 104.391 478.344 105.315 477.468 106.094C470.362 112.615 461.505 115.876 450.896 115.876ZM538.609 115.876C530.822 115.876 523.814 114.124 517.585 110.62C511.453 107.019 506.586 102.152 502.985 96.02C499.481 89.7907 497.729 82.8313 497.729 75.142C497.729 67.3553 499.481 60.396 502.985 54.264C506.586 48.0347 511.453 43.168 517.585 39.664C523.814 36.0627 530.822 34.262 538.609 34.262C546.395 34.262 553.355 36.0627 559.487 39.664C565.619 43.168 570.437 48.0347 573.941 54.264C577.542 60.396 579.343 67.3553 579.343 75.142C579.343 82.8313 577.542 89.7907 573.941 96.02C570.437 102.152 565.619 107.019 559.487 110.62C553.355 114.124 546.395 115.876 538.609 115.876ZM538.609 107.7C544.741 107.7 550.191 106.289 554.961 103.466C559.827 100.546 563.623 96.6527 566.349 91.786C569.171 86.822 570.583 81.274 570.583 75.142C570.583 68.9127 569.171 63.3647 566.349 58.498C563.623 53.534 559.827 49.6407 554.961 46.818C550.191 43.898 544.741 42.438 538.609 42.438C532.574 42.438 527.123 43.898 522.257 46.818C517.39 49.6407 513.545 53.534 510.723 58.498C507.9 63.3647 506.489 68.9127 506.489 75.142C506.489 81.274 507.9 86.822 510.723 91.786C513.545 96.6527 517.39 100.546 522.257 103.466C527.123 106.289 532.574 107.7 538.609 107.7ZM617.261 115C611.713 115 607.138 112.761 603.537 108.284C600.033 103.807 598.281 98.0153 598.281 90.91V5.35399C598.281 3.99133 598.67 2.92066 599.449 2.14199C600.325 1.36333 601.395 0.973997 602.661 0.973997C604.023 0.973997 605.094 1.36333 605.873 2.14199C606.651 2.92066 607.041 3.99133 607.041 5.35399V90.91C607.041 95.3873 607.965 99.086 609.815 102.006C611.761 104.829 614.243 106.24 617.261 106.24H620.911C623.344 106.24 624.561 107.7 624.561 110.62C624.561 111.885 624.171 112.956 623.393 113.832C622.614 114.611 621.543 115 620.181 115H617.261ZM656.612 115C651.064 115 646.489 112.761 642.888 108.284C639.384 103.807 637.632 98.0153 637.632 90.91V5.35399C637.632 3.99133 638.021 2.92066 638.8 2.14199C639.676 1.36333 640.747 0.973997 642.012 0.973997C643.375 0.973997 644.445 1.36333 645.224 2.14199C646.003 2.92066 646.392 3.99133 646.392 5.35399V90.91C646.392 95.3873 647.317 99.086 649.166 102.006C651.113 104.829 653.595 106.24 656.612 106.24H660.262C662.695 106.24 663.912 107.7 663.912 110.62C663.912 111.885 663.523 112.956 662.744 113.832C661.965 114.611 660.895 115 659.532 115H656.612ZM710.816 115.73C703.126 115.73 696.264 114.027 690.23 110.62C684.292 107.116 679.62 102.298 676.214 96.166C672.807 90.034 671.104 83.026 671.104 75.142C671.104 67.1607 672.71 60.1527 675.922 54.118C679.134 47.986 683.562 43.168 689.208 39.664C694.853 36.16 701.326 34.408 708.626 34.408C715.828 34.408 722.204 36.1113 727.752 39.518C733.3 42.8273 737.631 47.4507 740.746 53.388C743.86 59.228 745.418 65.9927 745.418 73.682C745.418 74.9473 745.028 75.9693 744.25 76.748C743.471 77.4293 742.449 77.77 741.184 77.77H680.01C680.302 83.61 681.81 88.7687 684.536 93.246C687.261 97.7233 690.862 101.227 695.34 103.758C699.914 106.289 705.073 107.554 710.816 107.554C714.612 107.554 718.408 106.921 722.204 105.656C726.097 104.293 729.163 102.541 731.402 100.4C732.18 99.6213 733.105 99.232 734.176 99.232C735.344 99.1347 736.317 99.4267 737.096 100.108C738.166 100.984 738.702 101.957 738.702 103.028C738.799 104.099 738.361 105.072 737.388 105.948C734.273 108.771 730.185 111.107 725.124 112.956C720.16 114.805 715.39 115.73 710.816 115.73ZM708.626 42.584C703.564 42.584 698.99 43.752 694.902 46.088C690.814 48.424 687.456 51.6847 684.828 55.87C682.297 59.958 680.74 64.7273 680.156 70.178H736.95C736.268 62.002 733.348 55.3833 728.19 50.322C723.031 45.1633 716.51 42.584 708.626 42.584ZM796.933 115.876C789.341 115.876 782.528 114.075 776.493 110.474C770.556 106.873 765.835 102.006 762.331 95.874C758.924 89.742 757.221 82.8313 757.221 75.142C757.221 67.3553 758.827 60.396 762.039 54.264C765.251 48.132 769.68 43.314 775.325 39.81C780.97 36.2087 787.443 34.408 794.743 34.408C800.972 34.408 806.666 35.6247 811.825 38.058C816.984 40.394 821.461 43.9953 825.257 48.862C826.036 49.8353 826.328 50.8573 826.133 51.928C825.938 52.9987 825.306 53.8747 824.235 54.556C823.359 55.2373 822.386 55.5293 821.315 55.432C820.244 55.2373 819.32 54.6533 818.541 53.68C812.312 46.2827 804.379 42.584 794.743 42.584C789 42.584 783.939 43.9953 779.559 46.818C775.276 49.6407 771.918 53.4853 769.485 58.352C767.149 63.2187 765.981 68.8153 765.981 75.142C765.981 81.274 767.295 86.822 769.923 91.786C772.551 96.6527 776.152 100.546 780.727 103.466C785.399 106.289 790.801 107.7 796.933 107.7C800.924 107.7 804.671 107.116 808.175 105.948C811.776 104.78 814.891 102.979 817.519 100.546C818.395 99.7673 819.368 99.3293 820.439 99.232C821.51 99.1347 822.434 99.4753 823.213 100.254C824.186 101.13 824.673 102.152 824.673 103.32C824.77 104.391 824.381 105.315 823.505 106.094C816.4 112.615 807.542 115.876 796.933 115.876ZM880.85 115C875.497 114.903 870.727 113.686 866.542 111.35C862.357 108.917 859.096 105.607 856.76 101.422C854.424 97.1393 853.256 92.3213 853.256 86.968V45.942H841.868C840.7 45.942 839.727 45.6013 838.948 44.92C838.267 44.1413 837.926 43.168 837.926 42C837.926 40.832 838.267 39.9073 838.948 39.226C839.727 38.4473 840.7 38.058 841.868 38.058H853.256V14.26C853.256 12.8973 853.645 11.8267 854.424 11.048C855.3 10.172 856.371 9.734 857.636 9.734C858.999 9.734 860.069 10.172 860.848 11.048C861.724 11.8267 862.162 12.8973 862.162 14.26V38.058H881.434C882.602 38.058 883.527 38.4473 884.208 39.226C884.987 39.9073 885.376 40.832 885.376 42C885.376 43.168 884.987 44.1413 884.208 44.92C883.527 45.6013 882.602 45.942 881.434 45.942H862.162V86.968C862.162 92.6133 863.914 97.2367 867.418 100.838C870.922 104.342 875.448 106.094 880.996 106.094H884.208C885.571 106.094 886.641 106.532 887.42 107.408C888.296 108.187 888.734 109.257 888.734 110.62C888.734 111.885 888.296 112.956 887.42 113.832C886.641 114.611 885.571 115 884.208 115H880.85ZM943.531 115.876C935.744 115.876 928.736 114.124 922.507 110.62C916.375 107.019 911.508 102.152 907.907 96.02C904.403 89.7907 902.651 82.8313 902.651 75.142C902.651 67.3553 904.403 60.396 907.907 54.264C911.508 48.0347 916.375 43.168 922.507 39.664C928.736 36.0627 935.744 34.262 943.531 34.262C951.317 34.262 958.277 36.0627 964.409 39.664C970.541 43.168 975.359 48.0347 978.863 54.264C982.464 60.396 984.265 67.3553 984.265 75.142C984.265 82.8313 982.464 89.7907 978.863 96.02C975.359 102.152 970.541 107.019 964.409 110.62C958.277 114.124 951.317 115.876 943.531 115.876ZM943.531 107.7C949.663 107.7 955.113 106.289 959.883 103.466C964.749 100.546 968.545 96.6527 971.271 91.786C974.093 86.822 975.505 81.274 975.505 75.142C975.505 68.9127 974.093 63.3647 971.271 58.498C968.545 53.534 964.749 49.6407 959.883 46.818C955.113 43.898 949.663 42.438 943.531 42.438C937.496 42.438 932.045 43.898 927.179 46.818C922.312 49.6407 918.467 53.534 915.645 58.498C912.822 63.3647 911.411 68.9127 911.411 75.142C911.411 81.274 912.822 86.822 915.645 91.786C918.467 96.6527 922.312 100.546 927.179 103.466C932.045 106.289 937.496 107.7 943.531 107.7ZM1010.5 115C1009.24 115 1008.17 114.611 1007.29 113.832C1006.51 112.956 1006.12 111.885 1006.12 110.62V39.518C1006.12 38.1553 1006.51 37.0847 1007.29 36.306C1008.17 35.5273 1009.24 35.138 1010.5 35.138C1011.87 35.138 1012.94 35.5273 1013.71 36.306C1014.49 37.0847 1014.88 38.1553 1014.88 39.518V48.57C1017.71 44.0927 1021.26 40.5887 1025.54 38.058C1029.92 35.5273 1034.74 34.262 1039.99 34.262C1043.69 34.262 1046.56 34.7 1048.61 35.576C1050.65 36.452 1051.43 38.0093 1050.94 40.248C1050.65 41.708 1049.97 42.584 1048.9 42.876C1047.83 43.168 1046.52 43.2167 1044.96 43.022C1043.5 42.73 1041.84 42.584 1039.99 42.584C1035.13 42.584 1030.8 43.606 1027 45.65C1023.2 47.694 1020.24 50.5167 1018.09 54.118C1015.95 57.622 1014.88 61.6613 1014.88 66.236V110.62C1014.88 111.885 1014.49 112.956 1013.71 113.832C1012.94 114.611 1011.87 115 1010.5 115Z" fill="black" fill-opacity="0.5"/>
</svg>
